<svg xmlns="http://www.w3.org/2000/svg" width="108" height="108" viewBox="0 0 108 108" fill="none">
  <g transform="translate(0,4)">
    <path fill="#282624" d="M20,72 Q20,68 24,68 L84,68 Q88,68 88,72 L88,80 Q88,84 84,84 L24,84 Q20,84 20,80 Z"></path>
    <path fill="#282624" fill-opacity="0.48" d="M20,56 Q20,52 24,52 L84,52 Q88,52 88,56 L88,62 Q88,66 84,66 L24,66 Q20,66 20,62 Z"></path>
    <path fill="#282624" fill-opacity="0.20" d="M20,43 Q20,39 24,39 L84,39 Q88,39 88,43 L88,48 Q88,51 84,51 L24,51 Q20,51 20,48 Z"></path>
    <path fill="#386044" d="M32,27 Q32,23 36,23 L39,23 Q43,23 43,27 L43,72 Q43,76 39,76 L36,76 Q32,76 32,72 Z"></path>
    <path fill="#386044" d="M27,17 Q27,13 31,13 L44,13 Q48,13 48,17 L48,24 Q48,28 44,28 L31,28 Q27,28 27,24 Z"></path>
  </g>
</svg>
